<?xml version="1.0" encoding="UTF-8" standalone="no"?>
<!-- Created with Sodipodi ("http://www.sodipodi.com/") -->
<svg
   xmlns:dc="http://purl.org/dc/elements/1.1/"
   xmlns:cc="http://web.resource.org/cc/"
   xmlns:rdf="http://www.w3.org/1999/02/22-rdf-syntax-ns#"
   xmlns:svg="http://www.w3.org/2000/svg"
   xmlns="http://www.w3.org/2000/svg"
   xmlns:xlink="http://www.w3.org/1999/xlink"
   xmlns:sodipodi="http://sodipodi.sourceforge.net/DTD/sodipodi-0.dtd"
   xmlns:inkscape="http://www.inkscape.org/namespaces/inkscape"
   id="svg602"
   sodipodi:version="0.32"
   width="1280pt"
   height="1024pt"
   xml:space="preserve"
   sodipodi:docbase="/tmp"
   sodipodi:docname="grml64-0.1.svg"
   inkscape:version="0.45"
   inkscape:output_extension="org.inkscape.output.svg.inkscape"
   sodipodi:modified="TRUE"
   inkscape:export-filename="/tmp/grml64-0.1.png"
   inkscape:export-xdpi="84.375"
   inkscape:export-ydpi="84.375"><metadata
     id="metadata69"><rdf:RDF><cc:Work
         rdf:about=""><dc:format>image/svg+xml</dc:format><dc:type
           rdf:resource="http://purl.org/dc/dcmitype/StillImage" /></cc:Work></rdf:RDF></metadata><defs
     id="defs604"><linearGradient
       id="linearGradient628"><stop
         style="stop-color:#ffe3ee;stop-opacity:1;"
         offset="0"
         id="stop629" /><stop
         style="stop-color:#d95c59;stop-opacity:1;"
         offset="1"
         id="stop630" /></linearGradient><linearGradient
       id="linearGradient617"><stop
         style="stop-color:#7f7f7f;stop-opacity:1;"
         offset="0"
         id="stop618" /><stop
         style="stop-color:#000000;stop-opacity:1;"
         offset="1"
         id="stop619" /></linearGradient><linearGradient
       id="linearGradient606"><stop
         style="stop-color:#17479e;stop-opacity:1;"
         offset="0"
         id="stop607" /><stop
         style="stop-color:#008cd4;stop-opacity:1;"
         offset="1"
         id="stop608" /></linearGradient><linearGradient
       xlink:href="#linearGradient606"
       id="linearGradient609"
       x1="0.51234567"
       y1="0.93750012"
       x2="0.47530863"
       y2="0.43750006"
       spreadMethod="pad" /><linearGradient
       xlink:href="#linearGradient617"
       id="linearGradient615"
       x1="0.37603319"
       y1="-0.19999993"
       x2="1.03305781"
       y2="2" /><radialGradient
       xlink:href="#linearGradient617"
       id="radialGradient616"
       cx="0.55371898"
       cy="0.61428595"
       r="0.67020649"
       fx="0.55371898"
       fy="0.61428595" /><radialGradient
       xlink:href="#linearGradient628"
       id="radialGradient631"
       cx="0.64204109"
       cy="0.33595657"
       r="0.75075585"
       fx="0.64204109"
       fy="0.33595657"
       spreadMethod="reflect" /><radialGradient
       xlink:href="#linearGradient617"
       id="radialGradient635"
       cx="0.45412749"
       cy="0.6171875"
       r="0.559852"
       fx="0.45412749"
       fy="0.6171875" /></defs><sodipodi:namedview
     id="base"
     inkscape:zoom="0.60390625"
     inkscape:cx="800"
     inkscape:cy="640"
     inkscape:window-width="1392"
     inkscape:window-height="991"
     inkscape:window-x="3"
     inkscape:window-y="30"
     inkscape:current-layer="svg602"><sodipodi:guide
       orientation="horizontal"
       position="533.172546"
       id="guide1100" /></sodipodi:namedview><rect
     style="font-size:12;fill:url(#linearGradient609);fill-rule:evenodd;stroke-width:1;"
     id="rect638"
     width="1640.7439"
     height="1304.52588"
     x="-3.36217999"
     y="-0.99060059" /><g
     id="g643"
     style="stroke:#7c7c7c;stroke-opacity:1;"><path
       style="fill:url(#linearGradient615);fill-rule:evenodd;stroke:#7c7c7c;stroke-opacity:1;stroke-width:12.5;stroke-linejoin:miter;stroke-linecap:butt;fill-opacity:1;stroke-dasharray:none;"
       d="M 337.8992 621.383 C 591.7079 442.606 581.2617 438.4847 742.3936 382.5294 C 893.4286 340.8168 1109.266 385.2821 1205.556 389.4352 C 1231.163 391.3012 1160.668 423.1531 1065.326 459.3734 C 969.9848 495.5936 849.7978 536.1822 776.0227 555.5212 C 702.3248 574.8401 580.6556 601.4747 481.3325 618.1949 C 382.0093 634.9152 317.0618 636.3992 337.8992 621.383 z "
       id="path642"
       sodipodi:nodetypes="cssssss" /><path
       style="fill:url(#radialGradient616);fill-rule:evenodd;stroke:#7c7c7c;stroke-opacity:1;stroke-width:12.5;stroke-linejoin:miter;stroke-linecap:butt;fill-opacity:1;stroke-dasharray:none;"
       d="M 601.346 621.383 L 340.7627 635.7007 C 249.9747 640.689 505.0116 572.6407 589.8918 541.2036 C 711.1872 496.2793 832.3951 452.5431 959.2899 429.525 C 1037.616 415.3169 1272.476 366.9089 1199.828 400.8894 L 844.7479 566.9755 L 601.346 621.383 z "
       id="path641"
       sodipodi:nodetypes="csssscc" /></g><g
     id="g687"
     style="stroke:#7c7c7c;stroke-opacity:1;"><path
       style="font-size:12;fill:url(#linearGradient615);fill-rule:evenodd;stroke:#7c7c7c;stroke-width:12.5;stroke-opacity:1;"
       d="M 1154.243 554.0661 C 1232.606 841.6581 991.06 954.594 835.6553 999.0954 C 680.3543 1019.907 451.6016 1002.069 355.3116 803.1944 C 343.8564 780.2166 400.1996 769.4764 495.5419 733.2564 C 590.8829 697.0364 711.0699 656.4474 784.8449 637.1084 C 858.5427 617.7894 905.7593 568.247 1005.082 551.527 C 1104.405 534.806 1145.441 529.9371 1154.243 554.0661 z "
       id="path657"
       sodipodi:nodetypes="cssssss" /><path
       style="font-size:12;fill:url(#radialGradient616);fill-rule:evenodd;stroke:#7c7c7c;stroke-width:12.5;stroke-opacity:1;"
       d="M 882.2057 545.4747 C 937.1787 534.6248 1057.837 516.8392 1114.153 513.9756 C 1219.897 508.5988 1202.583 751.747 1117.017 820.3757 C 981.5329 924.4481 733.4266 1004.358 610.1683 966.4168 C 445.9356 917.6269 308.2587 827.7196 369.6302 760.2413 C 407.811 718.5856 584.4677 631.9147 615.8954 622.7905 C 704.6655 597.0187 792.092 563.2603 882.2057 545.4747 z "
       id="path658"
       sodipodi:nodetypes="cssssss" /></g><path
     style="fill:url(#radialGradient631);fill-rule:evenodd;stroke:#626262;stroke-opacity:1;stroke-width:12.5;stroke-linejoin:miter;stroke-linecap:butt;fill-opacity:1;stroke-dasharray:none;"
     d="M 652.4778 640.3483 C 626.3286 691.4589 649.2857 888.2943 729.0146 948.2964 C 981.3949 1133.399 1163.314 916.8846 1122.968 802.5706 C 1082.622 688.2564 840.5448 600.8397 840.5448 600.8397 C 750.8867 578.4252 696.5558 553.8351 652.4778 640.3483 z "
     id="path627"
     sodipodi:nodetypes="csccs" /><path
     style="fill:none;fill-rule:evenodd;stroke:#000000;stroke-opacity:0.2178;stroke-width:12.5;stroke-linejoin:miter;stroke-linecap:butt;fill-opacity:1;stroke-dasharray:none;"
     d="M 729.5929 597.4775 C 774.422 814.8984 989.5554 650.433 973.8653 1009.066 "
     id="path633"
     sodipodi:nodetypes="cc" /><image
     xlink:href="logo.png"
     sodipodi:absref="/home/jpjacobs/graphics/logo.png"
     width="420.000031"
     height="199.500015"
     id="image637"
     x="664.092499"
     y="501.724396" /><path
     sodipodi:type="arc"
     style="fill-rule:evenodd;stroke:#1b347c;fill:#389ccd;fill-opacity:0.802;stroke-opacity:0.3762;stroke-width:12.5;stroke-linejoin:miter;stroke-linecap:butt;stroke-dasharray:none;"
     id="path690"
     d="M 195.7704 1055.227 A 36.25378 36.25378 0 1 0 123.2629 1055.227 A 36.25378 36.25378 0 1 0  195.7704 1055.227 z"
     sodipodi:cx="159.516647"
     sodipodi:cy="1055.22656"
     sodipodi:rx="36.2537842"
     sodipodi:ry="36.2537842"
     transform="matrix(0.5,0,0,0.5,-15.94677,609.6462)" /><path
     sodipodi:type="arc"
     style="fill-rule:evenodd;stroke:#1b347c;fill:#389ccd;fill-opacity:0.802;stroke-opacity:0.3762;stroke-width:12.5;stroke-linejoin:miter;stroke-linecap:butt;stroke-dasharray:none;"
     id="path692"
     d="M 195.7704 1055.227 A 36.25378 36.25378 0 1 0 123.2629 1055.227 A 36.25378 36.25378 0 1 0  195.7704 1055.227 z"
     sodipodi:cx="159.516647"
     sodipodi:cy="1055.22656"
     sodipodi:rx="36.2537842"
     sodipodi:ry="36.2537842"
     transform="matrix(0.5,0,0,0.5,336.1113,585.72)" /><path
     sodipodi:type="arc"
     style="fill-rule:evenodd;stroke:#1b347c;fill:#389ccd;fill-opacity:0.802;stroke-opacity:0.3762;stroke-width:12.5;stroke-linejoin:miter;stroke-linecap:butt;stroke-dasharray:none;"
     id="path693"
     d="M 195.7704 1055.227 A 36.25378 36.25378 0 1 0 123.2629 1055.227 A 36.25378 36.25378 0 1 0  195.7704 1055.227 z"
     sodipodi:cx="159.516647"
     sodipodi:cy="1055.22656"
     sodipodi:rx="36.2537842"
     sodipodi:ry="36.2537842"
     transform="matrix(0.5,0,0,0.5,575.374,674.589)" /><path
     sodipodi:type="arc"
     style="fill-rule:evenodd;stroke:#1b347c;fill:#389ccd;fill-opacity:0.802;stroke-opacity:0.3762;stroke-width:12.5;stroke-linejoin:miter;stroke-linecap:butt;stroke-dasharray:none;"
     id="path694"
     d="M 195.7704 1055.227 A 36.25378 36.25378 0 1 0 123.2629 1055.227 A 36.25378 36.25378 0 1 0  195.7704 1055.227 z"
     sodipodi:cx="159.516647"
     sodipodi:cy="1055.22656"
     sodipodi:rx="36.2537842"
     sodipodi:ry="36.2537842"
     transform="matrix(0.5,0,0,0.5,1040.228,729.2777)" /><path
     sodipodi:type="arc"
     style="fill-rule:evenodd;stroke:#1b347c;fill:#389ccd;fill-opacity:0.802;stroke-opacity:0.3762;stroke-width:12.5;stroke-linejoin:miter;stroke-linecap:butt;stroke-dasharray:none;"
     id="path695"
     d="M 195.7704 1055.227 A 36.25378 36.25378 0 1 0 123.2629 1055.227 A 36.25378 36.25378 0 1 0  195.7704 1055.227 z"
     sodipodi:cx="159.516647"
     sodipodi:cy="1055.22656"
     sodipodi:rx="36.2537842"
     sodipodi:ry="36.2537842"
     transform="matrix(0.5,0,0,0.5,1407.667,536.1584)" /><path
     sodipodi:type="arc"
     style="fill-rule:evenodd;stroke:#1b347c;fill:#389ccd;fill-opacity:0.802;stroke-opacity:0.3762;stroke-width:12.5;stroke-linejoin:miter;stroke-linecap:butt;stroke-dasharray:none;"
     id="path696"
     d="M 195.7704 1055.227 A 36.25378 36.25378 0 1 0 123.2629 1055.227 A 36.25378 36.25378 0 1 0  195.7704 1055.227 z"
     sodipodi:cx="159.516647"
     sodipodi:cy="1055.22656"
     sodipodi:rx="36.2537842"
     sodipodi:ry="36.2537842"
     transform="matrix(0.72,0,0,0.72,27.57447,97.21703)" /><path
     sodipodi:type="arc"
     style="fill-rule:evenodd;stroke:#1b347c;fill:#389ccd;fill-opacity:0.802;stroke-opacity:0.3762;stroke-width:12.5;stroke-linejoin:miter;stroke-linecap:butt;stroke-dasharray:none;"
     id="path697"
     d="M 195.7704 1055.227 A 36.25378 36.25378 0 1 0 123.2629 1055.227 A 36.25378 36.25378 0 1 0  195.7704 1055.227 z"
     sodipodi:cx="159.516647"
     sodipodi:cy="1055.22656"
     sodipodi:rx="36.2537842"
     sodipodi:ry="36.2537842"
     transform="matrix(0.72,0,0,0.72,275.3824,157.0327)" /><path
     sodipodi:type="arc"
     style="fill-rule:evenodd;stroke:#1b347c;fill:#389ccd;fill-opacity:0.802;stroke-opacity:0.3762;stroke-width:12.5;stroke-linejoin:miter;stroke-linecap:butt;stroke-dasharray:none;"
     id="path698"
     d="M 195.7704 1055.227 A 36.25378 36.25378 0 1 0 123.2629 1055.227 A 36.25378 36.25378 0 1 0  195.7704 1055.227 z"
     sodipodi:cx="159.516647"
     sodipodi:cy="1055.22656"
     sodipodi:rx="36.2537842"
     sodipodi:ry="36.2537842"
     transform="matrix(0.72,0,0,0.72,555.6616,249.3198)" /><path
     sodipodi:type="arc"
     style="fill-rule:evenodd;stroke:#1b347c;fill:#389ccd;fill-opacity:0.802;stroke-opacity:0.3762;stroke-width:12.5;stroke-linejoin:miter;stroke-linecap:butt;stroke-dasharray:none;"
     id="path699"
     d="M 195.7704 1055.227 A 36.25378 36.25378 0 1 0 123.2629 1055.227 A 36.25378 36.25378 0 1 0  195.7704 1055.227 z"
     sodipodi:cx="159.516647"
     sodipodi:cy="1055.22656"
     sodipodi:rx="36.2537842"
     sodipodi:ry="36.2537842"
     transform="matrix(0.72,0,0,0.72,1037.605,157.0327)" /><path
     sodipodi:type="arc"
     style="fill-rule:evenodd;stroke:#1b347c;fill:#389ccd;fill-opacity:0.802;stroke-opacity:0.3762;stroke-width:12.5;stroke-linejoin:miter;stroke-linecap:butt;stroke-dasharray:none;"
     id="path700"
     d="M 195.7704 1055.227 A 36.25378 36.25378 0 1 0 123.2629 1055.227 A 36.25378 36.25378 0 1 0  195.7704 1055.227 z"
     sodipodi:cx="159.516647"
     sodipodi:cy="1055.22656"
     sodipodi:rx="36.2537842"
     sodipodi:ry="36.2537842"
     transform="matrix(0.72,0,0,0.72,1290.54,27.14722)" /><path
     sodipodi:type="arc"
     style="fill-rule:evenodd;stroke:#1b347c;fill:#389ccd;fill-opacity:0.802;stroke-opacity:0.3762;stroke-width:12.5;stroke-linejoin:miter;stroke-linecap:butt;stroke-dasharray:none;"
     id="path701"
     d="M 195.7704 1055.227 A 36.25378 36.25378 0 1 0 123.2629 1055.227 A 36.25378 36.25378 0 1 0  195.7704 1055.227 z"
     sodipodi:cx="159.516647"
     sodipodi:cy="1055.22656"
     sodipodi:rx="36.2537842"
     sodipodi:ry="36.2537842"
     transform="matrix(0.864,0,0,0.864,30.23938,-442.6831)" /><path
     sodipodi:type="arc"
     style="fill-rule:evenodd;stroke:#1b347c;fill:#389ccd;fill-opacity:0.802;stroke-opacity:0.3762;stroke-width:12.5;stroke-linejoin:miter;stroke-linecap:butt;stroke-dasharray:none;"
     id="path703"
     d="M 195.7704 1055.227 A 36.25378 36.25378 0 1 0 123.2629 1055.227 A 36.25378 36.25378 0 1 0  195.7704 1055.227 z"
     sodipodi:cx="159.516647"
     sodipodi:cy="1055.22656"
     sodipodi:rx="36.2537842"
     sodipodi:ry="36.2537842"
     transform="matrix(1.0368,0,0,1.0368,596.7301,-767.2168)" /><path
     sodipodi:type="arc"
     style="fill-rule:evenodd;stroke:#1b347c;fill:#389ccd;fill-opacity:0.802;stroke-opacity:0.3762;stroke-width:12.5;stroke-linejoin:miter;stroke-linecap:butt;stroke-dasharray:none;"
     id="path702"
     d="M 195.7704 1055.227 A 36.25378 36.25378 0 1 0 123.2629 1055.227 A 36.25378 36.25378 0 1 0  195.7704 1055.227 z"
     sodipodi:cx="159.516647"
     sodipodi:cy="1055.22656"
     sodipodi:rx="36.2537842"
     sodipodi:ry="36.2537842"
     transform="matrix(0.864,0,0,0.864,308.8096,-577.6956)" /><path
     sodipodi:type="arc"
     style="fill-rule:evenodd;stroke:#1b347c;fill:#389ccd;fill-opacity:0.802;stroke-opacity:0.3762;stroke-width:12.5;stroke-linejoin:miter;stroke-linecap:butt;stroke-dasharray:none;"
     id="path704"
     d="M 195.7704 1055.227 A 36.25378 36.25378 0 1 0 123.2629 1055.227 A 36.25378 36.25378 0 1 0  195.7704 1055.227 z"
     sodipodi:cx="159.516647"
     sodipodi:cy="1055.22656"
     sodipodi:rx="36.2537842"
     sodipodi:ry="36.2537842"
     transform="matrix(1.0368,0,0,1.0368,907.7717,-900.5203)" /><path
     sodipodi:type="arc"
     style="fill-rule:evenodd;stroke:#1b347c;fill:#389ccd;fill-opacity:0.802;stroke-opacity:0.3762;stroke-width:12.5;stroke-linejoin:miter;stroke-linecap:butt;stroke-dasharray:none;"
     id="path705"
     d="M 195.7704 1055.227 A 36.25378 36.25378 0 1 0 123.2629 1055.227 A 36.25378 36.25378 0 1 0  195.7704 1055.227 z"
     sodipodi:cx="159.516647"
     sodipodi:cy="1055.22656"
     sodipodi:rx="36.2537842"
     sodipodi:ry="36.2537842"
     transform="matrix(1.0368,0,0,1.0368,1283.756,-671.5117)" /><path
     sodipodi:type="arc"
     style="fill-rule:evenodd;stroke:#1b347c;fill:#389ccd;fill-opacity:0.802;stroke-opacity:0.3762;stroke-width:12.5;stroke-linejoin:miter;stroke-linecap:butt;stroke-dasharray:none;"
     id="path706"
     d="M 195.7704 1055.227 A 36.25378 36.25378 0 1 0 123.2629 1055.227 A 36.25378 36.25378 0 1 0  195.7704 1055.227 z"
     sodipodi:cx="159.516647"
     sodipodi:cy="1055.22656"
     sodipodi:rx="36.2537842"
     sodipodi:ry="36.2537842"
     transform="matrix(1.0368,0,0,1.0368,1365.789,-972.2992)" /><path
     sodipodi:type="arc"
     style="fill-rule:evenodd;stroke:#1b347c;fill:#389ccd;fill-opacity:0.802;stroke-opacity:0.3762;stroke-width:12.5;stroke-linejoin:miter;stroke-linecap:butt;stroke-dasharray:none;"
     id="path707"
     d="M 195.7704 1055.227 A 36.25378 36.25378 0 1 0 123.2629 1055.227 A 36.25378 36.25378 0 1 0  195.7704 1055.227 z"
     sodipodi:cx="159.516647"
     sodipodi:cy="1055.22656"
     sodipodi:rx="36.2537842"
     sodipodi:ry="36.2537842"
     transform="matrix(1.0368,0,0,1.0368,32.75366,-982.5532)" /><path
     sodipodi:type="arc"
     style="fill-rule:evenodd;stroke:#1b347c;fill:#389ccd;fill-opacity:0.802;stroke-opacity:0.3762;stroke-width:12.5;stroke-linejoin:miter;stroke-linecap:butt;stroke-dasharray:none;"
     id="path708"
     d="M 195.7704 1055.227 A 36.25378 36.25378 0 1 0 123.2629 1055.227 A 36.25378 36.25378 0 1 0  195.7704 1055.227 z"
     sodipodi:cx="159.516647"
     sodipodi:cy="1055.22656"
     sodipodi:rx="36.2537842"
     sodipodi:ry="36.2537842"
     transform="matrix(0.864,0,0,0.864,1130.848,-346.978)" /><g
     id="g746"
     transform="translate(-324.7138,64.9427)"><path
       sodipodi:type="arc"
       style="fill-rule:evenodd;stroke:#1b347c;fill:#389ccd;fill-opacity:0.802;stroke-opacity:0.3762;stroke-width:12.5;stroke-linejoin:miter;stroke-linecap:butt;stroke-dasharray:none;"
       id="path728"
       d="M 195.7704 1055.227 A 36.25378 36.25378 0 1 0 123.2629 1055.227 A 36.25378 36.25378 0 1 0  195.7704 1055.227 z"
       sodipodi:cx="159.516647"
       sodipodi:cy="1055.22656"
       sodipodi:rx="36.2537842"
       sodipodi:ry="36.2537842"
       transform="matrix(0.5,0,0,0.5,148.1191,438.7441)" /><path
       sodipodi:type="arc"
       style="fill-rule:evenodd;stroke:#1b347c;fill:#389ccd;fill-opacity:0.802;stroke-opacity:0.3762;stroke-width:12.5;stroke-linejoin:miter;stroke-linecap:butt;stroke-dasharray:none;"
       id="path729"
       d="M 195.7704 1055.227 A 36.25378 36.25378 0 1 0 123.2629 1055.227 A 36.25378 36.25378 0 1 0  195.7704 1055.227 z"
       sodipodi:cx="159.516647"
       sodipodi:cy="1055.22656"
       sodipodi:rx="36.2537842"
       sodipodi:ry="36.2537842"
       transform="matrix(0.5,0,0,0.5,500.1772,414.818)" /><path
       sodipodi:type="arc"
       style="fill-rule:evenodd;stroke:#1b347c;fill:#389ccd;fill-opacity:0.802;stroke-opacity:0.3762;stroke-width:12.5;stroke-linejoin:miter;stroke-linecap:butt;stroke-dasharray:none;"
       id="path730"
       d="M 195.7704 1055.227 A 36.25378 36.25378 0 1 0 123.2629 1055.227 A 36.25378 36.25378 0 1 0  195.7704 1055.227 z"
       sodipodi:cx="159.516647"
       sodipodi:cy="1055.22656"
       sodipodi:rx="36.2537842"
       sodipodi:ry="36.2537842"
       transform="matrix(0.5,0,0,0.5,739.4399,503.687)" /><path
       sodipodi:type="arc"
       style="fill-rule:evenodd;stroke:#1b347c;fill:#389ccd;fill-opacity:0.802;stroke-opacity:0.3762;stroke-width:12.5;stroke-linejoin:miter;stroke-linecap:butt;stroke-dasharray:none;"
       id="path731"
       d="M 195.7704 1055.227 A 36.25378 36.25378 0 1 0 123.2629 1055.227 A 36.25378 36.25378 0 1 0  195.7704 1055.227 z"
       sodipodi:cx="159.516647"
       sodipodi:cy="1055.22656"
       sodipodi:rx="36.2537842"
       sodipodi:ry="36.2537842"
       transform="matrix(0.5,0,0,0.5,1204.294,558.3757)" /><path
       sodipodi:type="arc"
       style="fill-rule:evenodd;stroke:#1b347c;fill:#389ccd;fill-opacity:0.802;stroke-opacity:0.3762;stroke-width:12.5;stroke-linejoin:miter;stroke-linecap:butt;stroke-dasharray:none;"
       id="path732"
       d="M 195.7704 1055.227 A 36.25378 36.25378 0 1 0 123.2629 1055.227 A 36.25378 36.25378 0 1 0  195.7704 1055.227 z"
       sodipodi:cx="159.516647"
       sodipodi:cy="1055.22656"
       sodipodi:rx="36.2537842"
       sodipodi:ry="36.2537842"
       transform="matrix(0.5,0,0,0.5,1571.733,365.2563)" /><path
       sodipodi:type="arc"
       style="fill-rule:evenodd;stroke:#1b347c;fill:#389ccd;fill-opacity:0.802;stroke-opacity:0.3762;stroke-width:12.5;stroke-linejoin:miter;stroke-linecap:butt;stroke-dasharray:none;"
       id="path733"
       d="M 195.7704 1055.227 A 36.25378 36.25378 0 1 0 123.2629 1055.227 A 36.25378 36.25378 0 1 0  195.7704 1055.227 z"
       sodipodi:cx="159.516647"
       sodipodi:cy="1055.22656"
       sodipodi:rx="36.2537842"
       sodipodi:ry="36.2537842"
       transform="matrix(0.72,0,0,0.72,191.6404,-73.685)" /><path
       sodipodi:type="arc"
       style="fill-rule:evenodd;stroke:#1b347c;fill:#389ccd;fill-opacity:0.802;stroke-opacity:0.3762;stroke-width:12.5;stroke-linejoin:miter;stroke-linecap:butt;stroke-dasharray:none;"
       id="path734"
       d="M 195.7704 1055.227 A 36.25378 36.25378 0 1 0 123.2629 1055.227 A 36.25378 36.25378 0 1 0  195.7704 1055.227 z"
       sodipodi:cx="159.516647"
       sodipodi:cy="1055.22656"
       sodipodi:rx="36.2537842"
       sodipodi:ry="36.2537842"
       transform="matrix(0.72,0,0,0.72,439.4483,-13.86932)" /><path
       sodipodi:type="arc"
       style="fill-rule:evenodd;stroke:#1b347c;fill:#389ccd;fill-opacity:0.802;stroke-opacity:0.3762;stroke-width:12.5;stroke-linejoin:miter;stroke-linecap:butt;stroke-dasharray:none;"
       id="path735"
       d="M 195.7704 1055.227 A 36.25378 36.25378 0 1 0 123.2629 1055.227 A 36.25378 36.25378 0 1 0  195.7704 1055.227 z"
       sodipodi:cx="159.516647"
       sodipodi:cy="1055.22656"
       sodipodi:rx="36.2537842"
       sodipodi:ry="36.2537842"
       transform="matrix(0.72,0,0,0.72,719.7275,78.41774)" /><path
       sodipodi:type="arc"
       style="fill-rule:evenodd;stroke:#1b347c;fill:#389ccd;fill-opacity:0.802;stroke-opacity:0.3762;stroke-width:12.5;stroke-linejoin:miter;stroke-linecap:butt;stroke-dasharray:none;"
       id="path736"
       d="M 195.7704 1055.227 A 36.25378 36.25378 0 1 0 123.2629 1055.227 A 36.25378 36.25378 0 1 0  195.7704 1055.227 z"
       sodipodi:cx="159.516647"
       sodipodi:cy="1055.22656"
       sodipodi:rx="36.2537842"
       sodipodi:ry="36.2537842"
       transform="matrix(0.72,0,0,0.72,1201.671,-13.86932)" /><path
       sodipodi:type="arc"
       style="fill-rule:evenodd;stroke:#1b347c;fill:#389ccd;fill-opacity:0.802;stroke-opacity:0.3762;stroke-width:12.5;stroke-linejoin:miter;stroke-linecap:butt;stroke-dasharray:none;"
       id="path737"
       d="M 195.7704 1055.227 A 36.25378 36.25378 0 1 0 123.2629 1055.227 A 36.25378 36.25378 0 1 0  195.7704 1055.227 z"
       sodipodi:cx="159.516647"
       sodipodi:cy="1055.22656"
       sodipodi:rx="36.2537842"
       sodipodi:ry="36.2537842"
       transform="matrix(0.72,0,0,0.72,1454.606,-143.7549)" /><path
       sodipodi:type="arc"
       style="fill-rule:evenodd;stroke:#1b347c;fill:#389ccd;fill-opacity:0.802;stroke-opacity:0.3762;stroke-width:12.5;stroke-linejoin:miter;stroke-linecap:butt;stroke-dasharray:none;"
       id="path738"
       d="M 195.7704 1055.227 A 36.25378 36.25378 0 1 0 123.2629 1055.227 A 36.25378 36.25378 0 1 0  195.7704 1055.227 z"
       sodipodi:cx="159.516647"
       sodipodi:cy="1055.22656"
       sodipodi:rx="36.2537842"
       sodipodi:ry="36.2537842"
       transform="matrix(0.864,0,0,0.864,194.3053,-613.5852)" /><path
       sodipodi:type="arc"
       style="fill-rule:evenodd;stroke:#1b347c;fill:#389ccd;fill-opacity:0.802;stroke-opacity:0.3762;stroke-width:12.5;stroke-linejoin:miter;stroke-linecap:butt;stroke-dasharray:none;"
       id="path739"
       d="M 195.7704 1055.227 A 36.25378 36.25378 0 1 0 123.2629 1055.227 A 36.25378 36.25378 0 1 0  195.7704 1055.227 z"
       sodipodi:cx="159.516647"
       sodipodi:cy="1055.22656"
       sodipodi:rx="36.2537842"
       sodipodi:ry="36.2537842"
       transform="matrix(1.0368,0,0,1.0368,760.796,-938.1189)" /><path
       sodipodi:type="arc"
       style="fill-rule:evenodd;stroke:#1b347c;fill:#389ccd;fill-opacity:0.802;stroke-opacity:0.3762;stroke-width:12.5;stroke-linejoin:miter;stroke-linecap:butt;stroke-dasharray:none;"
       id="path740"
       d="M 195.7704 1055.227 A 36.25378 36.25378 0 1 0 123.2629 1055.227 A 36.25378 36.25378 0 1 0  195.7704 1055.227 z"
       sodipodi:cx="159.516647"
       sodipodi:cy="1055.22656"
       sodipodi:rx="36.2537842"
       sodipodi:ry="36.2537842"
       transform="matrix(0.864,0,0,0.864,472.8755,-748.5977)" /><path
       sodipodi:type="arc"
       style="fill-rule:evenodd;stroke:#1b347c;fill:#389ccd;fill-opacity:0.802;stroke-opacity:0.3762;stroke-width:12.5;stroke-linejoin:miter;stroke-linecap:butt;stroke-dasharray:none;"
       id="path741"
       d="M 195.7704 1055.227 A 36.25378 36.25378 0 1 0 123.2629 1055.227 A 36.25378 36.25378 0 1 0  195.7704 1055.227 z"
       sodipodi:cx="159.516647"
       sodipodi:cy="1055.22656"
       sodipodi:rx="36.2537842"
       sodipodi:ry="36.2537842"
       transform="matrix(1.0368,0,0,1.0368,1071.838,-1071.422)" /><path
       sodipodi:type="arc"
       style="fill-rule:evenodd;stroke:#1b347c;fill:#389ccd;fill-opacity:0.802;stroke-opacity:0.3762;stroke-width:12.5;stroke-linejoin:miter;stroke-linecap:butt;stroke-dasharray:none;"
       id="path742"
       d="M 195.7704 1055.227 A 36.25378 36.25378 0 1 0 123.2629 1055.227 A 36.25378 36.25378 0 1 0  195.7704 1055.227 z"
       sodipodi:cx="159.516647"
       sodipodi:cy="1055.22656"
       sodipodi:rx="36.2537842"
       sodipodi:ry="36.2537842"
       transform="matrix(1.0368,0,0,1.0368,1447.822,-842.4136)" /><path
       sodipodi:type="arc"
       style="fill-rule:evenodd;stroke:#1b347c;fill:#389ccd;fill-opacity:0.802;stroke-opacity:0.3762;stroke-width:12.5;stroke-linejoin:miter;stroke-linecap:butt;stroke-dasharray:none;"
       id="path743"
       d="M 195.7704 1055.227 A 36.25378 36.25378 0 1 0 123.2629 1055.227 A 36.25378 36.25378 0 1 0  195.7704 1055.227 z"
       sodipodi:cx="159.516647"
       sodipodi:cy="1055.22656"
       sodipodi:rx="36.2537842"
       sodipodi:ry="36.2537842"
       transform="matrix(1.0368,0,0,1.0368,1529.855,-1143.201)" /><path
       sodipodi:type="arc"
       style="fill-rule:evenodd;stroke:#1b347c;fill:#389ccd;fill-opacity:0.802;stroke-opacity:0.3762;stroke-width:12.5;stroke-linejoin:miter;stroke-linecap:butt;stroke-dasharray:none;"
       id="path744"
       d="M 195.7704 1055.227 A 36.25378 36.25378 0 1 0 123.2629 1055.227 A 36.25378 36.25378 0 1 0  195.7704 1055.227 z"
       sodipodi:cx="159.516647"
       sodipodi:cy="1055.22656"
       sodipodi:rx="36.2537842"
       sodipodi:ry="36.2537842"
       transform="matrix(1.0368,0,0,1.0368,196.8196,-1153.455)" /><path
       sodipodi:type="arc"
       style="fill-rule:evenodd;stroke:#1b347c;fill:#389ccd;fill-opacity:0.802;stroke-opacity:0.3762;stroke-width:12.5;stroke-linejoin:miter;stroke-linecap:butt;stroke-dasharray:none;"
       id="path745"
       d="M 195.7704 1055.227 A 36.25378 36.25378 0 1 0 123.2629 1055.227 A 36.25378 36.25378 0 1 0  195.7704 1055.227 z"
       sodipodi:cx="159.516647"
       sodipodi:cy="1055.22656"
       sodipodi:rx="36.2537842"
       sodipodi:ry="36.2537842"
       transform="matrix(0.864,0,0,0.864,1294.914,-517.8799)" /></g><text
     style="font-size:75px;font-style:normal;font-weight:bold;line-height:100%;writing-mode:lr-tb;text-anchor:start;fill:#9c9c9c;fill-opacity:1;stroke:none;stroke-width:1pt;stroke-linecap:butt;stroke-linejoin:miter;stroke-opacity:1;font-family:Bitstream Vera Sans Mono"
     x="1056.0562"
     y="689.10089"
     id="text1057"
     sodipodi:linespacing="100%"
     xml:space="preserve"><tspan
       x="1056.0562"
       y="689.10089"
       sodipodi:role="line"
       id="tspan1098">64</tspan></text>
</svg>